<?xml version="1.0" encoding="UTF-8" standalone="no"?>
<svg
   xmlns:dc="http://purl.org/dc/elements/1.1/"
   xmlns:cc="http://creativecommons.org/ns#"
   xmlns:rdf="http://www.w3.org/1999/02/22-rdf-syntax-ns#"
   xmlns:svg="http://www.w3.org/2000/svg"
   xmlns="http://www.w3.org/2000/svg"
   xmlns:sodipodi="http://sodipodi.sourceforge.net/DTD/sodipodi-0.dtd"
   xmlns:inkscape="http://www.inkscape.org/namespaces/inkscape"
   width="13"
   height="13"
   viewBox="0 0 13 13"
   fill="none"
   id="svg2"
   version="1.1"
   inkscape:version="0.91 r13725"
   sodipodi:docname="paymentgrey.svg">
  <metadata
     id="metadata10">
    <rdf:RDF>
      <cc:Work
         rdf:about="">
        <dc:format>image/svg+xml</dc:format>
        <dc:type
           rdf:resource="http://purl.org/dc/dcmitype/StillImage" />
        <dc:title></dc:title>
      </cc:Work>
    </rdf:RDF>
  </metadata>
  <defs
     id="defs8" />
  <sodipodi:namedview
     pagecolor="#ffffff"
     bordercolor="#666666"
     borderopacity="1"
     objecttolerance="10"
     gridtolerance="10"
     guidetolerance="10"
     inkscape:pageopacity="0"
     inkscape:pageshadow="2"
     inkscape:window-width="1549"
     inkscape:window-height="876"
     id="namedview6"
     showgrid="false"
     inkscape:zoom="18.153846"
     inkscape:cx="-1.6525424"
     inkscape:cy="6.5"
     inkscape:window-x="51"
     inkscape:window-y="24"
     inkscape:window-maximized="1"
     inkscape:current-layer="svg2" />
  <path
     d="M12.0603 6.24636H10.1811V0.25417C10.1811 0.151491 10.1192 0.0588909 10.0243 0.0195861C9.92942 -0.019744 9.82021 0.00204121 9.74762 0.0746077L9.02833 0.793874L8.30909 0.0746331C8.20994 -0.0245174 8.04917 -0.0245174 7.94999 0.0746331L7.23073 0.793899L6.51154 0.0746331C6.41239 -0.0245174 6.25161 -0.0245174 6.15244 0.0746331L5.43317 0.793899L4.71388 0.0746331C4.61473 -0.0245174 4.45396 -0.0245174 4.35481 0.0746331L3.63554 0.793899L2.91633 0.0746331C2.81717 -0.0245174 2.6564 -0.0245174 2.55723 0.0746331L1.83796 0.793899L1.11872 0.0746331C1.02018 -0.023908 0.860802 -0.0244158 0.761398 0.0732366C0.709194 0.124551 0.68388 0.192928 0.685632 0.260848V11.68C0.685632 12.408 1.27789 13.0003 2.00589 13.0003H10.9936C10.9936 13.0003 10.9936 13.0003 10.9937 13.0003C10.9938 13.0003 10.9938 13.0003 10.9939 13.0003C11.7219 13.0003 12.3142 12.408 12.3142 11.68V6.50025C12.3142 6.36001 12.2005 6.24636 12.0603 6.24636ZM2.00589 12.4924C1.55788 12.4924 1.19342 12.128 1.19342 11.68V0.867481L1.65842 1.33249C1.75757 1.43164 1.91835 1.43164 2.01752 1.33249L2.73679 0.61322L3.45605 1.33249C3.5552 1.43164 3.71598 1.43164 3.81515 1.33249L4.53442 0.61322L5.25371 1.33249C5.35286 1.43164 5.51363 1.43164 5.61278 1.33249L6.33205 0.61322L7.05132 1.33249C7.15047 1.43164 7.31124 1.43164 7.41042 1.33249L8.12968 0.61322L8.84895 1.33249C8.94812 1.43164 9.1089 1.43164 9.20802 1.33249L9.67341 0.867126V6.50025C9.67341 6.50256 9.67369 6.50482 9.67376 6.50713V11.68C9.67376 11.9862 9.77888 12.2682 9.9545 12.4924H2.00589ZM11.8064 11.68C11.8064 12.128 11.4419 12.4924 10.9939 12.4924C10.5459 12.4924 10.1814 12.128 10.1814 11.68V6.75415H11.8064V11.68Z"
     fill="#333333"
     id="path4"
     style="fill:#b6b6b6;fill-opacity:1" />
</svg>
